<?xml version="1.0" standalone="no"?>
<!DOCTYPE svg PUBLIC "-//W3C//DTD SVG 20010904//EN"
 "http://www.w3.org/TR/2001/REC-SVG-20010904/DTD/svg10.dtd">
<svg version="1.0" xmlns="http://www.w3.org/2000/svg"
 width="570.000000pt" height="570.000000pt" viewBox="0 0 570.000000 570.000000"
 preserveAspectRatio="xMidYMid meet">

<g transform="translate(0.000000,570.000000) scale(0.100000,-0.100000)"
fill="#000000" stroke="none">
<path d="M3092 4199 c-49 -25 -121 -101 -160 -170 -24 -44 -30 -49 -53 -44
-22 5 -30 1 -45 -22 -45 -67 -69 -128 -69 -174 0 -42 8 -59 74 -156 41 -59
172 -255 293 -435 147 -221 224 -328 236 -328 28 0 38 12 77 89 32 64 36 80
31 120 -3 25 -6 53 -7 61 -1 8 11 47 26 85 62 163 82 371 49 515 -27 122 -27
123 2 144 33 24 130 45 205 46 136 0 327 -72 446 -169 214 -175 342 -501 359
-911 30 -717 -317 -1309 -734 -1250 -79 11 -134 41 -210 114 -191 183 -405
595 -589 1136 -195 572 -502 1018 -812 1179 -97 50 -176 66 -294 58 -415 -26
-759 -438 -843 -1007 -20 -142 -15 -479 10 -637 67 -418 261 -772 488 -890
105 -55 149 -66 258 -67 105 -1 105 -1 200 45 52 25 133 71 179 102 46 32 86
57 89 57 2 0 21 -13 41 -29 58 -45 96 -61 151 -61 126 0 260 129 388 374 51
96 55 147 17 211 l-24 42 39 89 c48 110 74 206 66 252 -6 37 -31 72 -52 72
-24 0 -74 -52 -125 -131 -28 -43 -53 -79 -56 -79 -2 0 -38 52 -79 116 l-76
116 37 81 c21 45 47 118 58 164 18 74 19 86 6 120 -30 77 -87 46 -177 -95
l-47 -74 -17 24 c-50 68 -66 73 -98 28 -30 -41 -106 -218 -140 -322 -86 -264
-84 -542 4 -742 14 -32 23 -63 20 -68 -11 -18 -138 -95 -215 -132 -112 -52
-153 -60 -240 -47 -319 49 -558 392 -633 911 -53 368 -10 691 131 978 82 168
269 372 397 435 100 49 317 66 426 33 238 -71 489 -346 698 -762 66 -131 110
-240 178 -436 234 -678 500 -1132 730 -1244 67 -33 187 -44 275 -25 233 50
440 297 553 661 69 223 81 312 81 615 0 289 -5 338 -55 530 -60 228 -150 396
-281 522 -119 115 -210 164 -395 212 -55 14 -188 14 -233 -1 -105 -34 -152
-52 -157 -59 -11 -18 -23 -7 -73 71 -103 158 -218 214 -329 159z m143 -108
c83 -37 185 -182 232 -329 29 -90 36 -240 14 -332 -17 -78 -61 -200 -71 -200
-17 0 -450 643 -450 667 0 26 84 147 118 172 63 44 98 49 157 22z m-194 -483
c90 -134 207 -309 261 -389 54 -80 98 -152 98 -160 -1 -8 -7 -25 -14 -38 -13
-23 -19 -15 -165 200 -328 482 -381 562 -381 575 0 17 22 54 32 54 4 0 80
-109 169 -242z m-447 -745 c-9 -21 -23 -55 -32 -76 -15 -38 -34 -44 -40 -14
-4 19 63 127 78 127 6 0 3 -16 -6 -37z m-183 -81 c9 -15 46 -72 81 -127 35
-55 130 -202 211 -328 l147 -227 -22 -45 c-12 -25 -24 -45 -27 -45 -4 0 -78
112 -165 248 -88 136 -191 294 -229 351 l-69 104 23 49 c12 26 25 48 28 48 3
0 13 -12 22 -28z m-64 -234 c22 -35 122 -190 222 -346 l182 -282 -47 -60 c-63
-80 -125 -126 -188 -141 -47 -10 -56 -9 -93 9 -80 41 -159 162 -193 298 -24
93 -26 221 -5 331 17 92 65 253 75 253 4 0 25 -28 47 -62z m503 -168 c-17 -33
-35 -58 -40 -55 -16 10 -12 23 27 83 46 72 54 54 13 -28z"/>
</g>
</svg>
